<svg width="100%" height="100%" viewBox="-1 -1 31 31" xmlns="http://www.w3.org/2000/svg" xmlns:xlink="http://www.w3.org/1999/xlink" shape-rendering="crispEdges" id="qr code"><rect id="qr background" fill-opacity="1" fill="rgb(255, 255, 255)" x="-1" y="-1" width="31" height="31"></rect><path fill-opacity="1" fill="rgb(0, 0, 0)" id="qr dark pixels" fill-rule="evenodd" d="M 9 0 L 10 0 L 10 2 L 11 2 L 11 1 L 13 1 L 13 2 L 12 2 L 12 4 L 11 4 L 11 3 L 10 3 L 10 4 L 8 4 L 8 3 L 9 3 L 9 2 L 8 2 L 8 1 L 9 1 z M 14 0 L 15 0 L 15 1 L 14 1 z M 16 0 L 21 0 L 21 2 L 20 2 L 20 1 L 18 1 L 18 2 L 17 2 L 17 1 L 16 1 z M 15 1 L 16 1 L 16 4 L 13 4 L 13 3 L 15 3 z M 18 2 L 19 2 L 19 3 L 18 3 z M 17 3 L 18 3 L 18 4 L 17 4 z M 19 3 L 20 3 L 20 4 L 21 4 L 21 7 L 20 7 L 20 5 L 18 5 L 18 4 L 19 4 z M 10 4 L 11 4 L 11 7 L 10 7 z M 12 4 L 13 4 L 13 5 L 12 5 z M 8 5 L 9 5 L 9 7 L 8 7 z M 15 5 L 16 5 L 16 6 L 15 6 z M 17 5 L 18 5 L 18 6 L 17 6 z M 12 6 L 13 6 L 13 8 L 14 8 L 14 6 L 15 6 L 15 10 L 14 10 L 14 9 L 12 9 z M 16 6 L 17 6 L 17 8 L 19 8 L 19 7 L 20 7 L 20 9 L 21 9 L 21 10 L 22 10 L 22 11 L 21 11 L 21 12 L 20 12 L 20 13 L 21 13 L 21 15 L 23 15 L 23 16 L 22 16 L 22 17 L 21 17 L 21 16 L 20 16 L 20 17 L 21 17 L 21 18 L 18 18 L 18 19 L 17 19 L 17 17 L 16 17 L 16 14 L 18 14 L 18 15 L 17 15 L 17 16 L 18 16 L 18 17 L 19 17 L 19 16 L 18 16 L 18 15 L 20 15 L 20 14 L 18 14 L 18 13 L 19 13 L 19 12 L 18 12 L 18 9 L 16 9 zM 19 10 L 20 10 L 20 11 L 19 11 z M 18 6 L 19 6 L 19 7 L 18 7 z M 0 8 L 5 8 L 5 9 L 4 9 L 4 10 L 3 10 L 3 12 L 1 12 L 1 13 L 0 13 zM 1 9 L 2 9 L 2 10 L 1 10 z M 6 8 L 11 8 L 11 9 L 10 9 L 10 11 L 11 11 L 11 10 L 14 10 L 14 11 L 12 11 L 12 13 L 11 13 L 11 12 L 10 12 L 10 13 L 9 13 L 9 14 L 8 14 L 8 12 L 9 12 L 9 11 L 8 11 L 8 10 L 9 10 L 9 9 L 8 9 L 8 10 L 7 10 L 7 9 L 6 9 z M 21 8 L 22 8 L 22 9 L 21 9 z M 23 8 L 24 8 L 24 9 L 23 9 z M 25 8 L 26 8 L 26 10 L 25 10 L 25 11 L 26 11 L 26 12 L 24 12 L 24 11 L 23 11 L 23 10 L 24 10 L 24 9 L 25 9 z M 27 8 L 28 8 L 28 9 L 27 9 z M 22 9 L 23 9 L 23 10 L 22 10 z M 4 10 L 5 10 L 5 11 L 4 11 z M 6 10 L 7 10 L 7 11 L 6 11 z M 5 11 L 6 11 L 6 12 L 5 12 z M 16 11 L 17 11 L 17 12 L 16 12 z M 28 11 L 29 11 L 29 12 L 28 12 z M 6 12 L 7 12 L 7 13 L 6 13 z M 13 12 L 15 12 L 15 13 L 16 13 L 16 14 L 15 14 L 15 15 L 14 15 L 14 13 L 13 13 z M 17 12 L 18 12 L 18 13 L 17 13 z M 21 12 L 22 12 L 22 13 L 21 13 z M 23 12 L 24 12 L 24 13 L 23 13 z M 27 12 L 28 12 L 28 13 L 27 13 z M 3 13 L 4 13 L 4 14 L 7 14 L 7 15 L 6 15 L 6 16 L 5 16 L 5 20 L 7 20 L 7 19 L 6 19 L 6 18 L 7 18 L 7 17 L 10 17 L 10 18 L 8 18 L 8 19 L 9 19 L 9 20 L 8 20 L 8 21 L 4 21 L 4 20 L 3 20 L 3 21 L 2 21 L 2 19 L 3 19 L 3 18 L 4 18 L 4 17 L 2 17 L 2 16 L 4 16 L 4 15 L 1 15 L 1 14 L 3 14 z M 10 13 L 11 13 L 11 17 L 10 17 L 10 15 L 9 15 L 9 14 L 10 14 z M 12 13 L 13 13 L 13 14 L 12 14 z M 22 13 L 23 13 L 23 14 L 22 14 z M 24 13 L 27 13 L 27 15 L 23 15 L 23 14 L 24 14 z M 8 15 L 9 15 L 9 16 L 8 16 z M 12 15 L 13 15 L 13 16 L 15 16 L 15 17 L 14 17 L 14 18 L 15 18 L 15 19 L 12 19 L 12 21 L 11 21 L 11 23 L 8 23 L 8 21 L 9 21 L 9 22 L 10 22 L 10 20 L 11 20 L 11 18 L 13 18 L 13 17 L 12 17 z M 0 16 L 1 16 L 1 21 L 0 21 z M 6 16 L 7 16 L 7 17 L 6 17 z M 23 16 L 24 16 L 24 17 L 23 17 z M 25 16 L 27 16 L 27 17 L 28 17 L 28 18 L 27 18 L 27 19 L 26 19 L 26 17 L 25 17 z M 28 16 L 29 16 L 29 17 L 28 17 z M 15 17 L 16 17 L 16 18 L 15 18 z M 22 17 L 23 17 L 23 19 L 21 19 L 21 18 L 22 18 z M 24 17 L 25 17 L 25 20 L 28 20 L 28 21 L 27 21 L 27 22 L 26 22 L 26 21 L 25 21 L 25 24 L 28 24 L 28 23 L 29 23 L 29 26 L 28 26 L 28 28 L 27 28 L 27 25 L 26 25 L 26 27 L 25 27 L 25 28 L 27 28 L 27 29 L 23 29 L 23 27 L 24 27 L 24 26 L 25 26 L 25 25 L 24 25 L 24 26 L 23 26 L 23 25 L 22 25 L 22 26 L 21 26 L 21 27 L 22 27 L 22 28 L 18 28 L 18 25 L 17 25 L 17 24 L 18 24 L 18 23 L 17 23 L 17 22 L 19 22 L 19 23 L 20 23 L 20 21 L 19 21 L 19 20 L 20 20 L 20 19 L 21 19 L 21 20 L 23 20 L 23 19 L 24 19 zM 21 21 L 24 21 L 24 24 L 21 24 z M 19 24 L 20 24 L 20 27 L 19 27 z M 15 19 L 16 19 L 16 20 L 18 20 L 18 21 L 17 21 L 17 22 L 16 22 L 16 21 L 13 21 L 13 20 L 15 20 z M 28 19 L 29 19 L 29 20 L 28 20 z M 12 21 L 13 21 L 13 22 L 12 22 z M 14 22 L 15 22 L 15 23 L 16 23 L 16 25 L 15 25 L 15 26 L 14 26 L 14 25 L 12 25 L 12 23 L 13 23 L 13 24 L 14 24 z M 22 22 L 23 22 L 23 23 L 22 23 z M 8 24 L 9 24 L 9 26 L 14 26 L 14 27 L 12 27 L 12 28 L 13 28 L 13 29 L 11 29 L 11 28 L 10 28 L 10 29 L 8 29 z M 10 24 L 11 24 L 11 25 L 10 25 z M 15 26 L 17 26 L 17 27 L 16 27 L 16 29 L 15 29 z M 22 26 L 23 26 L 23 27 L 22 27 z M 17 28 L 18 28 L 18 29 L 17 29 z"></path><path id="qr squares" d="M0,0h7h0v0v7v0h0h-7h0v0v-7v0h0zM1,1h5h0v0v5v0h0h-5h0v0v-5v0h0zM2,2h3h0v0v3v0h0h-3h0v0v-3v0h0z M22,0h7h0v0v7v0h0h-7h0v0v-7v0h0zM23,1h5h0v0v5v0h0h-5h0v0v-5v0h0zM24,2h3h0v0v3v0h0h-3h0v0v-3v0h0z M0,22h7h0v0v7v0h0h-7h0v0v-7v0h0zM1,23h5h0v0v5v0h0h-5h0v0v-5v0h0zM2,24h3h0v0v3v0h0h-3h0v0v-3v0h0z" fill-rule="evenodd" fill-opacity="1" fill="rgb(0, 0, 0)"></path></svg>
